<svg id="svg" xmlns="http://www.w3.org/2000/svg" width="400" height="266" viewBox="0, 0, 400,266"><g id="svgg"><path id="path0" d="M0.000 222.355 L 0.000 266.134 200.000 266.134 L 400.000 266.134 400.000 222.355 L 400.000 178.576 200.000 178.576 L 0.000 178.576 0.000 222.355 " stroke="none" fill="#24448c" fill-rule="evenodd"></path><path id="path1" d="M0.000 133.067 L 0.000 176.181 200.000 176.181 L 400.000 176.181 400.000 133.067 L 400.000 89.953 200.000 89.953 L 0.000 89.953 0.000 133.067 " stroke="none" fill="#fcfcfc" fill-rule="evenodd"></path><path id="path2" d="M0.000 176.979 L 0.000 177.778 200.000 177.778 L 400.000 177.778 400.000 176.979 L 400.000 176.181 200.000 176.181 L 0.000 176.181 0.000 176.979 " stroke="none" fill="#b4c4d4" fill-rule="evenodd"></path><path id="path3" d="M0.000 89.288 L 0.000 89.953 200.000 89.953 L 400.000 89.953 400.000 89.288 L 400.000 88.623 200.000 88.623 L 0.000 88.623 0.000 89.288 " stroke="none" fill="#e4b4b4" fill-rule="evenodd"></path><path id="path4" d="M0.000 43.779 L 0.000 87.558 200.000 87.558 L 400.000 87.558 400.000 43.779 L 400.000 0.000 200.000 0.000 L 0.000 0.000 0.000 43.779 " stroke="none" fill="#ac1c2c" fill-rule="evenodd"></path><path id="path5" d="M0.000 178.177 C 0.000 178.531,22.400 178.576,200.000 178.576 C 377.600 178.576,400.000 178.531,400.000 178.177 C 400.000 177.822,377.600 177.778,200.000 177.778 C 22.400 177.778,0.000 177.822,0.000 178.177 " stroke="none" fill="#405cc8" fill-rule="evenodd"></path><path id="path6" d="M0.000 88.224 C 0.000 88.578,22.400 88.623,200.000 88.623 C 377.600 88.623,400.000 88.578,400.000 88.224 C 400.000 87.869,377.600 87.824,200.000 87.824 C 22.400 87.824,0.000 87.869,0.000 88.224 " stroke="none" fill="#b05c98" fill-rule="evenodd"></path><path id="path7" d="M100.022 87.758 C 155.107 87.795,245.167 87.795,300.155 87.758 C 355.143 87.721,310.073 87.691,200.000 87.691 C 89.927 87.691,44.937 87.721,100.022 87.758 " stroke="none" fill="#d85c2c" fill-rule="evenodd"></path><path id="path8" d="" stroke="none" fill="#88602c" fill-rule="evenodd"></path></g></svg>
