<svg viewBox="0 0 220 194" fill="none" xmlns="http://www.w3.org/2000/svg">
<g filter="url(#filter0_d)">
<path d="M97.0217 172.643C95.1582 172.299 93.3146 171.876 91.4974 171.387C90.8233 171.202 90.1559 171.017 89.4951 170.812C89.0061 170.667 88.5237 170.515 88.0347 170.356C87.6911 170.244 87.3409 170.125 86.9973 170.006C86.462 169.821 85.9334 169.636 85.4047 169.438C84.8364 169.226 84.2747 169.015 83.7197 168.79L82.5831 147.948L85.0281 136.199L96.8763 172.207L97.0217 172.643Z" fill="url(#paint0_linear)"/>
<path d="M137.787 147.948L136.578 168.671C136.009 168.903 135.441 169.121 134.873 169.339C134.304 169.557 133.729 169.762 133.155 169.96C132.87 170.059 132.58 170.158 132.289 170.251C131.8 170.416 131.304 170.568 130.809 170.72C128.293 171.491 125.736 172.122 123.15 172.61L123.19 172.478L123.203 172.425L135.196 135.657L137.787 147.948Z" fill="url(#paint1_linear)"/>
<path d="M125.734 162.93L119.324 173.225L119 173.265C118.881 173.278 118.762 173.298 118.643 173.311C118.544 173.324 118.438 173.338 118.339 173.344L117.672 173.424C117.196 173.476 116.727 173.523 116.251 173.562C114.225 173.741 112.181 173.833 110.119 173.84H110C107.958 173.84 105.923 173.754 103.907 173.575C103.465 173.536 103.022 173.496 102.579 173.45C102.381 173.43 102.176 173.41 101.978 173.384L101.654 173.344L101.343 173.305L101 173.265L94.6031 162.923L93.189 137.674L99.9226 155.958L107.932 157.406L113.007 157.392L120.606 155.899L126.388 138.354L125.734 162.93Z" fill="url(#paint2_linear)"/>
<path d="M119.416 91.6665L129.646 97.5543L129.672 104.321L119.416 91.6665Z" fill="url(#paint3_linear)"/>
<path d="M155.239 94.5883L162.323 92.8569L158.979 104.144L155.239 94.5883Z" fill="url(#paint4_linear)"/>
<path d="M129.672 104.322L130.716 115.311L135.725 108.016L141.6 98.7378L129.672 104.322Z" fill="url(#paint5_linear)"/>
<path d="M155.239 94.5881L146.833 96.8084L141.6 98.738L135.725 108.016L130.716 115.311L137.635 115.668L150.64 113.223L158.979 104.143L155.239 94.5881Z" fill="url(#paint6_linear)"/>
<path d="M125.74 119.5L130.716 115.311L132.163 119.507L125.74 119.5Z" fill="url(#paint7_linear)"/>
<path d="M130.716 115.311L137.635 115.667L132.163 119.507L130.716 115.311Z" fill="url(#paint8_linear)"/>
<path d="M125.74 119.5L132.164 119.507L125.285 124.49L125.74 119.5Z" fill="url(#paint9_linear)"/>
<path d="M119.416 91.6665L129.672 104.321L123.361 110.506L119.416 91.6665Z" fill="url(#paint10_linear)"/>
<path d="M125.74 119.5L130.716 115.311L123.361 110.507L125.74 119.5Z" fill="url(#paint11_linear)"/>
<path d="M129.672 104.321L130.716 115.31L123.361 110.506L129.672 104.321Z" fill="url(#paint12_linear)"/>
<path d="M123.361 110.507L117.242 128.831L125.284 124.49L125.74 119.5L123.361 110.507Z" fill="url(#paint13_linear)"/>
<path d="M123.877 130.616L125.284 124.49L117.242 128.832L120.738 138.691L125.938 139.847L123.877 130.616Z" fill="url(#paint14_linear)"/>
<path d="M119.436 145.655L114.302 153.201L113.007 157.39L120.606 155.897L119.436 145.655Z" fill="url(#paint15_linear)"/>
<path d="M90.473 104.387L90.4201 97.6208L100.583 91.6934L90.473 104.387Z" fill="url(#paint16_linear)"/>
<path d="M61.0739 104.308L57.565 93.0078L64.7084 94.7193L61.0739 104.308Z" fill="url(#paint17_linear)"/>
<path d="M90.473 104.388L89.3629 115.391L84.4531 108.102L78.4464 98.8376L90.473 104.388Z" fill="url(#paint18_linear)"/>
<path d="M64.7082 94.7197L73.1731 96.9202L78.4463 98.8365L84.4531 108.101L89.3629 115.39L82.6359 115.773L69.5519 113.374L61.0737 104.308L64.7082 94.7197Z" fill="url(#paint19_linear)"/>
<path d="M88.1601 119.599L89.3628 115.39L94.5964 119.56L88.1601 119.599Z" fill="url(#paint20_linear)"/>
<path d="M88.1602 119.599L82.6358 115.773L89.3629 115.39L88.1602 119.599Z" fill="url(#paint21_linear)"/>
<path d="M95.1184 124.556L88.1601 119.6L94.5964 119.56L95.1184 124.556Z" fill="url(#paint22_linear)"/>
<path d="M96.8697 110.559L90.4731 104.387L100.583 91.6934L96.8697 110.559Z" fill="url(#paint23_linear)"/>
<path d="M96.8698 110.558L89.363 115.389L94.5966 119.559L96.8698 110.558Z" fill="url(#paint24_linear)"/>
<path d="M96.8698 110.559L89.363 115.389L90.4732 104.387L96.8698 110.559Z" fill="url(#paint25_linear)"/>
<path d="M96.8696 110.558L102.81 128.77L95.1184 124.554L94.5964 119.559L96.8696 110.558Z" fill="url(#paint26_linear)"/>
<path d="M101.231 145.709L99.8432 138.744L110.35 139.57L101.231 145.709Z" fill="url(#paint27_linear)"/>
<path d="M95.1186 124.555L96.8037 130.357L93.8631 140.104L99.8434 138.743L102.81 128.771L95.1186 124.555Z" fill="url(#paint28_linear)"/>
<path d="M101.231 145.708L106.2 153.221L107.932 157.411L99.9226 155.957L101.231 145.708Z" fill="url(#paint29_linear)"/>
<path d="M114.302 153.2L110.304 152.797V152.784L110.251 152.791L110.198 152.784V152.797L106.2 153.22L107.932 157.41L113.007 157.39L114.302 153.2Z" fill="url(#paint30_linear)"/>
<path d="M119.436 145.656L110.35 139.643V139.57L110.297 139.603L110.244 139.57V139.643L101.231 145.709L106.2 153.222L110.251 152.793L114.302 153.202L119.436 145.656Z" fill="url(#paint31_linear)"/>
<path d="M117.242 128.831L123.362 110.507L110.126 111.326L96.8698 110.56L102.81 128.772L99.8434 138.743L110.245 139.563V139.569L110.297 139.563L110.35 139.569V139.563L120.738 138.69L117.242 128.831Z" fill="url(#paint32_linear)"/>
<path d="M110.178 111.326L123.362 110.506L119.417 91.6665L109.967 93.867L100.584 91.6929L96.8698 110.559L110.073 111.326V111.332L110.126 111.326L110.178 111.332V111.326Z" fill="url(#paint33_linear)"/>
<path d="M120.738 138.69L119.436 145.655L120.606 155.898L125.939 139.847L120.738 138.69Z" fill="url(#paint34_linear)"/>
<path d="M99.8434 138.744L93.8631 140.105L99.9227 155.958L101.231 145.709L99.8434 138.744Z" fill="url(#paint35_linear)"/>
<path d="M99.8432 138.742L93.8629 140.103L88.1601 119.599L95.1184 124.555L99.6714 130.383L99.8432 138.742Z" fill="url(#paint36_linear)"/>
<path d="M120.738 138.69L125.939 139.847L132.164 119.507L125.285 124.49L120.917 131.203L120.738 138.69Z" fill="url(#paint37_linear)"/>
<path d="M110.244 139.569L120.738 138.69L119.436 145.655L110.244 139.569Z" fill="url(#paint38_linear)"/>
<path d="M105.909 142.458H115.26L110.244 139.57L105.909 142.458Z" fill="url(#paint39_linear)"/>
<path d="M183.363 79.244L179.391 80.7837L178.413 79.8519L178.724 77.4334L196.348 57.8801L210 29.9742L207.357 29.2936L196.017 51.3843L196.334 47.8689L200.279 22.8705L197.345 0.700455L194.9 0L195.958 19.3352L188.993 52.3227L180.039 64.4287L179.015 56.3206L184.81 41.915L186.013 22.3155L183.971 22.2295L182.491 36.3378L177.072 49.6266L174.885 51.6553L173.451 49.2103L173.2 34.9897L171.059 35.1946L170.47 52.9967L171.065 67.9772L164.602 73.5478L152.325 79.0457L143.358 80.1559L153.296 67.0058L152.648 59.5651L151.75 59.6643L151.023 62.9551L136.908 81.689L129.467 83.6846L119.469 91.7597L129.646 97.5549L134.232 92.0636L138.983 90.7552L149.093 88.9512L155.14 87.8741L166.288 87.2199L178.836 86.4864L199.249 71.3738L197.636 68.8759L183.363 79.244Z" fill="url(#paint40_linear)"/>
<path d="M82.8474 81.7684L68.6664 63.0675L67.9197 59.7899L67.0276 59.6908L66.4329 67.1051L76.4111 80.2287L67.477 79.1119L55.2455 73.6206L48.7894 68.0632L49.2784 53.1422L48.5779 35.4128L46.4501 35.2145L46.2981 49.3756L44.8972 51.8074L42.7099 49.7919L37.2517 36.5758L35.6922 22.527L33.6701 22.6195L34.9917 42.1199L40.8333 56.4528L39.8619 64.5279L30.9212 52.4748L23.8109 19.6789L24.7228 0.449463L22.3174 1.15653L19.5553 23.2077L23.6258 48.054L23.9562 51.5497L12.6102 29.6043L10 30.2849L23.6787 58.0057L41.2496 77.4731L41.5734 79.8784L40.6152 80.8036L36.6702 79.2705L22.4694 68.9421L20.8967 71.4267L41.2033 86.4799L53.6595 87.2398L64.7346 87.9073L70.7546 88.9976L80.8385 90.8148L85.5831 92.1298L90.4202 97.6211L100.583 91.6937L90.2748 83.7706L82.8474 81.7684Z" fill="url(#paint41_linear)"/>
<path d="M101.343 173.309L101 173.27C100.094 173.151 99.1958 173.019 98.3037 172.873C98.1715 172.853 98.0393 172.827 97.9072 172.807L97.0283 172.649C95.1648 172.305 93.3212 171.882 91.504 171.393C90.8299 171.208 90.1625 171.023 89.5017 170.818C89.0127 170.673 88.5303 170.521 88.0413 170.362L86.0061 160.199L85.0347 136.212L88.1669 119.612L93.8697 140.117L94.6098 162.941L101.343 173.309Z" fill="url(#paint42_linear)"/>
<path d="M135.302 136.199L134.331 160.186L134.291 160.226L132.283 170.244C131.794 170.409 131.298 170.561 130.802 170.713C128.286 171.484 125.729 172.115 123.144 172.603C122.846 172.656 122.549 172.715 122.251 172.768L122.04 172.808C122.027 172.808 122.02 172.814 122.007 172.814C121.115 172.966 120.216 173.105 119.311 173.224L118.987 173.264L125.714 162.922L125.919 139.84L132.15 119.507L135.19 135.664L135.302 136.199Z" fill="url(#paint43_linear)"/>
</g>
<defs>
<filter id="filter0_d" x="0.166623" y="0" width="219.667" height="193.507" filterUnits="userSpaceOnUse" color-interpolation-filters="sRGB">
<feFlood flood-opacity="0" result="BackgroundImageFix"/>
<feColorMatrix in="SourceAlpha" type="matrix" values="0 0 0 0 0 0 0 0 0 0 0 0 0 0 0 0 0 0 127 0"/>
<feOffset dy="9.83338"/>
<feGaussianBlur stdDeviation="4.91669"/>
<feColorMatrix type="matrix" values="0 0 0 0 0.190515 0 0 0 0 0.174931 0 0 0 0 0.954167 0 0 0 0.25 0"/>
<feBlend mode="normal" in2="BackgroundImageFix" result="effect1_dropShadow"/>
<feBlend mode="normal" in="SourceGraphic" in2="effect1_dropShadow" result="shape"/>
</filter>
<linearGradient id="paint0_linear" x1="89.8024" y1="74.6021" x2="89.8024" y2="187.425" gradientUnits="userSpaceOnUse">
<stop stop-color="#00E0A4"/>
<stop offset="1" stop-color="#00182E"/>
</linearGradient>
<linearGradient id="paint1_linear" x1="35394.3" y1="-72453.1" x2="35394.3" y2="-9362.58" gradientUnits="userSpaceOnUse">
<stop stop-color="#00E0A4"/>
<stop offset="1" stop-color="#00182E"/>
</linearGradient>
<linearGradient id="paint2_linear" x1="109.788" y1="192.775" x2="109.788" y2="112.247" gradientUnits="userSpaceOnUse">
<stop stop-color="#00E0B5"/>
<stop offset="1" stop-color="#000B08"/>
</linearGradient>
<linearGradient id="paint3_linear" x1="121.316" y1="90.4486" x2="131.948" y2="102.779" gradientUnits="userSpaceOnUse">
<stop stop-color="#00917B"/>
<stop offset="1" stop-color="#00BD86"/>
</linearGradient>
<linearGradient id="paint4_linear" x1="156.904" y1="90.1976" x2="166.704" y2="97.2763" gradientUnits="userSpaceOnUse">
<stop stop-color="#004F75"/>
<stop offset="1" stop-color="#006186"/>
</linearGradient>
<linearGradient id="paint5_linear" x1="127.837" y1="112.032" x2="149.423" y2="94.407" gradientUnits="userSpaceOnUse">
<stop stop-color="#00E0A3"/>
<stop offset="1" stop-color="#00298F"/>
</linearGradient>
<linearGradient id="paint6_linear" x1="137.519" y1="113.34" x2="173.987" y2="83.5637" gradientUnits="userSpaceOnUse">
<stop stop-color="#00E094"/>
<stop offset="1" stop-color="#000051"/>
</linearGradient>
<linearGradient id="paint7_linear" x1="132.617" y1="117.075" x2="126.256" y2="118.878" gradientUnits="userSpaceOnUse">
<stop stop-color="#005773"/>
<stop offset="1" stop-color="#003B1B"/>
</linearGradient>
<linearGradient id="paint8_linear" x1="174819" y1="-136950" x2="175019" y2="-136482" gradientUnits="userSpaceOnUse">
<stop stop-color="#00E094"/>
<stop offset="1" stop-color="#000051"/>
</linearGradient>
<linearGradient id="paint9_linear" x1="126.596" y1="119.654" x2="131.651" y2="126.568" gradientUnits="userSpaceOnUse">
<stop stop-color="#000700"/>
<stop offset="1" stop-color="#002B16"/>
</linearGradient>
<linearGradient id="paint10_linear" x1="119.304" y1="92.0785" x2="134.802" y2="103.646" gradientUnits="userSpaceOnUse">
<stop stop-color="#00ABB5"/>
<stop offset="1" stop-color="#00AD95"/>
</linearGradient>
<linearGradient id="paint11_linear" x1="123.587" y1="110.733" x2="131.92" y2="119.478" gradientUnits="userSpaceOnUse">
<stop stop-color="#00C77A"/>
<stop offset="1" stop-color="#00C797"/>
</linearGradient>
<linearGradient id="paint12_linear" x1="123.66" y1="103.306" x2="133.239" y2="113.359" gradientUnits="userSpaceOnUse">
<stop stop-color="#00D4B0"/>
<stop offset="1" stop-color="#00A1B5"/>
</linearGradient>
<linearGradient id="paint13_linear" x1="100.324" y1="137.399" x2="128.777" y2="114.167" gradientUnits="userSpaceOnUse">
<stop stop-color="#00E088"/>
<stop offset="1" stop-color="#00E0B5"/>
</linearGradient>
<linearGradient id="paint14_linear" x1="115.018" y1="140.406" x2="131.971" y2="124.758" gradientUnits="userSpaceOnUse">
<stop stop-color="#00E094"/>
<stop offset="1" stop-color="#00E0B5"/>
</linearGradient>
<linearGradient id="paint15_linear" x1="15363.5" y1="-3280.61" x2="17681.4" y2="-4469.58" gradientUnits="userSpaceOnUse">
<stop stop-color="#00C77A"/>
<stop offset="1" stop-color="#00C797"/>
</linearGradient>
<linearGradient id="paint16_linear" x1="-524553" y1="-838926" x2="-526545" y2="-837049" gradientUnits="userSpaceOnUse">
<stop stop-color="#00917B"/>
<stop offset="1" stop-color="#00BD86"/>
</linearGradient>
<linearGradient id="paint17_linear" x1="-282287" y1="-766889" x2="-283555" y2="-766264" gradientUnits="userSpaceOnUse">
<stop stop-color="#004F75"/>
<stop offset="1" stop-color="#006186"/>
</linearGradient>
<linearGradient id="paint18_linear" x1="-83941.9" y1="-18816.9" x2="-88966.9" y2="-21705.3" gradientUnits="userSpaceOnUse">
<stop stop-color="#00E0A3"/>
<stop offset="1" stop-color="#00298F"/>
</linearGradient>
<linearGradient id="paint19_linear" x1="-198464" y1="-13754.1" x2="-210043" y2="-26272.4" gradientUnits="userSpaceOnUse">
<stop stop-color="#00E094"/>
<stop offset="1" stop-color="#000051"/>
</linearGradient>
<linearGradient id="paint20_linear" x1="10955.3" y1="-5085.13" x2="11417.8" y2="-4766.18" gradientUnits="userSpaceOnUse">
<stop stop-color="#005773"/>
<stop offset="1" stop-color="#003B1B"/>
</linearGradient>
<linearGradient id="paint21_linear" x1="-201268" y1="-135711" x2="-201542" y2="-135083" gradientUnits="userSpaceOnUse">
<stop stop-color="#00E094"/>
<stop offset="1" stop-color="#000051"/>
</linearGradient>
<linearGradient id="paint22_linear" x1="-193418" y1="-147985" x2="-193747" y2="-147332" gradientUnits="userSpaceOnUse">
<stop stop-color="#000700"/>
<stop offset="1" stop-color="#002B16"/>
</linearGradient>
<linearGradient id="paint23_linear" x1="-647788" y1="-2.01514e+06" x2="-650778" y2="-2.01381e+06" gradientUnits="userSpaceOnUse">
<stop stop-color="#00ABB5"/>
<stop offset="1" stop-color="#00AD95"/>
</linearGradient>
<linearGradient id="paint24_linear" x1="-270907" y1="-439697" x2="-272019" y2="-438707" gradientUnits="userSpaceOnUse">
<stop stop-color="#00C77A"/>
<stop offset="1" stop-color="#00C797"/>
</linearGradient>
<linearGradient id="paint25_linear" x1="-282018" y1="-544270" x2="-283475" y2="-543194" gradientUnits="userSpaceOnUse">
<stop stop-color="#00D4B0"/>
<stop offset="1" stop-color="#00A1B5"/>
</linearGradient>
<linearGradient id="paint26_linear" x1="-54583.7" y1="-17110.1" x2="-60083.9" y2="-18914.8" gradientUnits="userSpaceOnUse">
<stop stop-color="#00E088"/>
<stop offset="1" stop-color="#00E0B5"/>
</linearGradient>
<linearGradient id="paint27_linear" x1="-429044" y1="-238595" x2="-429474" y2="-237303" gradientUnits="userSpaceOnUse">
<stop stop-color="#00E094"/>
<stop offset="1" stop-color="#00E0B5"/>
</linearGradient>
<linearGradient id="paint28_linear" x1="15253.5" y1="-13336" x2="18898" y2="-15433.2" gradientUnits="userSpaceOnUse">
<stop stop-color="#00E094"/>
<stop offset="1" stop-color="#00E0B5"/>
</linearGradient>
<linearGradient id="paint29_linear" x1="-52996.4" y1="-4674.99" x2="-55403.5" y2="-5969.79" gradientUnits="userSpaceOnUse">
<stop stop-color="#00C77A"/>
<stop offset="1" stop-color="#00C797"/>
</linearGradient>
<linearGradient id="paint30_linear" x1="17059.7" y1="-3060.35" x2="17390.4" y2="-3639.49" gradientUnits="userSpaceOnUse">
<stop stop-color="#00C77A"/>
<stop offset="1" stop-color="#00C797"/>
</linearGradient>
<linearGradient id="paint31_linear" x1="118.855" y1="146.396" x2="102.064" y2="146.396" gradientUnits="userSpaceOnUse">
<stop stop-color="#004D45"/>
<stop offset="0.11" stop-color="#003630"/>
<stop offset="0.24" stop-color="#00221E"/>
<stop offset="0.37" stop-color="#001613"/>
<stop offset="0.5" stop-color="#00120F"/>
<stop offset="0.67" stop-color="#001512"/>
<stop offset="0.78" stop-color="#001E1A"/>
<stop offset="0.88" stop-color="#002D28"/>
<stop offset="0.97" stop-color="#00423B"/>
<stop offset="1" stop-color="#004D45"/>
</linearGradient>
<linearGradient id="paint32_linear" x1="110.116" y1="138.509" x2="110.116" y2="111.049" gradientUnits="userSpaceOnUse">
<stop stop-color="#00C584"/>
<stop offset="1" stop-color="#00E0A9"/>
</linearGradient>
<linearGradient id="paint33_linear" x1="110" y1="113.432" x2="111.114" y2="85.5746" gradientUnits="userSpaceOnUse">
<stop stop-color="#00C7B5"/>
<stop offset="1" stop-color="#00ABB5"/>
</linearGradient>
<linearGradient id="paint34_linear" x1="122.687" y1="156.559" x2="122.687" y2="137.724" gradientUnits="userSpaceOnUse">
<stop stop-color="#007F9B"/>
<stop offset="1" stop-color="#00C693"/>
</linearGradient>
<linearGradient id="paint35_linear" x1="14178.2" y1="-12635.6" x2="14178.2" y2="-17273.9" gradientUnits="userSpaceOnUse">
<stop stop-color="#007F9B"/>
<stop offset="1" stop-color="#00C693"/>
</linearGradient>
<linearGradient id="paint36_linear" x1="107.767" y1="143.039" x2="78.5865" y2="119.502" gradientUnits="userSpaceOnUse">
<stop stop-color="#00C696"/>
<stop offset="1" stop-color="#00959B"/>
</linearGradient>
<linearGradient id="paint37_linear" x1="24350.8" y1="-12000.3" x2="31632.8" y2="-15175.1" gradientUnits="userSpaceOnUse">
<stop stop-color="#00C696"/>
<stop offset="1" stop-color="#00959B"/>
</linearGradient>
<linearGradient id="paint38_linear" x1="379467" y1="-242465" x2="379905" y2="-241174" gradientUnits="userSpaceOnUse">
<stop stop-color="#00E094"/>
<stop offset="1" stop-color="#00E0B5"/>
</linearGradient>
<linearGradient id="paint39_linear" x1="19158.1" y1="-6926.69" x2="19200.5" y2="-6632.41" gradientUnits="userSpaceOnUse">
<stop stop-color="#00E094"/>
<stop offset="1" stop-color="#00E0B5"/>
</linearGradient>
<linearGradient id="paint40_linear" x1="265187" y1="-155536" x2="265187" y2="-350514" gradientUnits="userSpaceOnUse">
<stop stop-color="#00E094"/>
<stop offset="1" stop-color="#000051"/>
</linearGradient>
<linearGradient id="paint41_linear" x1="115208" y1="-154924" x2="115208" y2="-349137" gradientUnits="userSpaceOnUse">
<stop stop-color="#00E094"/>
<stop offset="1" stop-color="#000051"/>
</linearGradient>
<linearGradient id="paint42_linear" x1="93.189" y1="178.528" x2="93.189" y2="121.694" gradientUnits="userSpaceOnUse">
<stop stop-color="#00E0AB"/>
<stop offset="1" stop-color="#00182E"/>
</linearGradient>
<linearGradient id="paint43_linear" x1="38614.1" y1="-20964.9" x2="38614.1" y2="-67239.2" gradientUnits="userSpaceOnUse">
<stop stop-color="#00E0AB"/>
<stop offset="1" stop-color="#00182E"/>
</linearGradient>
</defs>
</svg>